<mxfile host="app.diagrams.net" modified="2023-11-01T18:07:53.808Z" agent="Mozilla/5.0 (Windows NT 10.0; Win64; x64) AppleWebKit/537.36 (KHTML, like Gecko) Chrome/116.0.0.0 Safari/537.36" etag="GJOt6X1YyObemugfKEtc" version="22.0.8" type="device">
  <diagram name="Page-1" id="HL6KULMRv6GPSVpq03Zq">
    <mxGraphModel dx="1434" dy="782" grid="1" gridSize="10" guides="1" tooltips="1" connect="1" arrows="1" fold="1" page="1" pageScale="1" pageWidth="850" pageHeight="1100" math="0" shadow="0">
      <root>
        <mxCell id="0" />
        <mxCell id="1" parent="0" />
        <mxCell id="SIxeFpGajm9Z2pZIayPS-3" style="edgeStyle=orthogonalEdgeStyle;rounded=0;orthogonalLoop=1;jettySize=auto;html=1;exitX=1;exitY=0.5;exitDx=0;exitDy=0;entryX=0;entryY=0.5;entryDx=0;entryDy=0;endArrow=ERmany;endFill=0;" edge="1" parent="1" source="SIxeFpGajm9Z2pZIayPS-1" target="SIxeFpGajm9Z2pZIayPS-2">
          <mxGeometry relative="1" as="geometry" />
        </mxCell>
        <mxCell id="SIxeFpGajm9Z2pZIayPS-6" style="edgeStyle=orthogonalEdgeStyle;rounded=0;orthogonalLoop=1;jettySize=auto;html=1;exitX=0.5;exitY=1;exitDx=0;exitDy=0;entryX=0;entryY=0.5;entryDx=0;entryDy=0;endArrow=ERmany;endFill=0;" edge="1" parent="1" source="SIxeFpGajm9Z2pZIayPS-1" target="SIxeFpGajm9Z2pZIayPS-5">
          <mxGeometry relative="1" as="geometry" />
        </mxCell>
        <mxCell id="SIxeFpGajm9Z2pZIayPS-8" style="edgeStyle=orthogonalEdgeStyle;rounded=0;orthogonalLoop=1;jettySize=auto;html=1;exitX=0.5;exitY=1;exitDx=0;exitDy=0;entryX=0;entryY=0.5;entryDx=0;entryDy=0;endArrow=ERmany;endFill=0;" edge="1" parent="1" source="SIxeFpGajm9Z2pZIayPS-1" target="SIxeFpGajm9Z2pZIayPS-7">
          <mxGeometry relative="1" as="geometry" />
        </mxCell>
        <mxCell id="SIxeFpGajm9Z2pZIayPS-21" style="edgeStyle=orthogonalEdgeStyle;rounded=0;orthogonalLoop=1;jettySize=auto;html=1;exitX=0.5;exitY=0;exitDx=0;exitDy=0;entryX=0.5;entryY=1;entryDx=0;entryDy=0;endArrow=ERmany;endFill=0;" edge="1" parent="1" source="SIxeFpGajm9Z2pZIayPS-1" target="SIxeFpGajm9Z2pZIayPS-20">
          <mxGeometry relative="1" as="geometry" />
        </mxCell>
        <mxCell id="SIxeFpGajm9Z2pZIayPS-26" style="edgeStyle=orthogonalEdgeStyle;rounded=0;orthogonalLoop=1;jettySize=auto;html=1;exitX=0.5;exitY=0;exitDx=0;exitDy=0;entryX=0.5;entryY=1;entryDx=0;entryDy=0;endArrow=ERmany;endFill=0;" edge="1" parent="1" source="SIxeFpGajm9Z2pZIayPS-1" target="SIxeFpGajm9Z2pZIayPS-22">
          <mxGeometry relative="1" as="geometry" />
        </mxCell>
        <mxCell id="SIxeFpGajm9Z2pZIayPS-1" value="Company" style="rounded=1;whiteSpace=wrap;html=1;fillColor=#d5e8d4;strokeColor=#82b366;" vertex="1" parent="1">
          <mxGeometry x="200" y="180" width="120" height="60" as="geometry" />
        </mxCell>
        <mxCell id="SIxeFpGajm9Z2pZIayPS-2" value="Tickets" style="rounded=1;whiteSpace=wrap;html=1;fillColor=#d5e8d4;strokeColor=#82b366;" vertex="1" parent="1">
          <mxGeometry x="470" y="180" width="120" height="60" as="geometry" />
        </mxCell>
        <mxCell id="SIxeFpGajm9Z2pZIayPS-4" value="Report Context" style="rounded=1;whiteSpace=wrap;html=1;fillColor=#d5e8d4;strokeColor=#82b366;" vertex="1" parent="1">
          <mxGeometry x="640" y="60" width="120" height="60" as="geometry" />
        </mxCell>
        <mxCell id="SIxeFpGajm9Z2pZIayPS-5" value="Change Requests" style="rounded=1;whiteSpace=wrap;html=1;fillColor=#d5e8d4;strokeColor=#82b366;" vertex="1" parent="1">
          <mxGeometry x="470" y="270" width="120" height="60" as="geometry" />
        </mxCell>
        <mxCell id="SIxeFpGajm9Z2pZIayPS-13" style="edgeStyle=orthogonalEdgeStyle;rounded=0;orthogonalLoop=1;jettySize=auto;html=1;exitX=0.5;exitY=1;exitDx=0;exitDy=0;entryX=0;entryY=0.5;entryDx=0;entryDy=0;endArrow=ERmany;endFill=0;" edge="1" parent="1" source="SIxeFpGajm9Z2pZIayPS-7" target="SIxeFpGajm9Z2pZIayPS-12">
          <mxGeometry relative="1" as="geometry" />
        </mxCell>
        <mxCell id="SIxeFpGajm9Z2pZIayPS-15" style="edgeStyle=orthogonalEdgeStyle;rounded=0;orthogonalLoop=1;jettySize=auto;html=1;exitX=0.5;exitY=1;exitDx=0;exitDy=0;entryX=0;entryY=0.5;entryDx=0;entryDy=0;endArrow=ERmany;endFill=0;" edge="1" parent="1" source="SIxeFpGajm9Z2pZIayPS-7" target="SIxeFpGajm9Z2pZIayPS-14">
          <mxGeometry relative="1" as="geometry" />
        </mxCell>
        <mxCell id="SIxeFpGajm9Z2pZIayPS-7" value="Annual Report" style="rounded=1;whiteSpace=wrap;html=1;fillColor=#d5e8d4;strokeColor=#82b366;" vertex="1" parent="1">
          <mxGeometry x="470" y="350" width="120" height="60" as="geometry" />
        </mxCell>
        <mxCell id="SIxeFpGajm9Z2pZIayPS-10" style="edgeStyle=orthogonalEdgeStyle;rounded=0;orthogonalLoop=1;jettySize=auto;html=1;exitX=0;exitY=0.5;exitDx=0;exitDy=0;endArrow=ERmany;endFill=0;" edge="1" parent="1" source="SIxeFpGajm9Z2pZIayPS-9" target="SIxeFpGajm9Z2pZIayPS-7">
          <mxGeometry relative="1" as="geometry" />
        </mxCell>
        <mxCell id="SIxeFpGajm9Z2pZIayPS-9" value="Reporting Cycle" style="rounded=1;whiteSpace=wrap;html=1;fillColor=#d5e8d4;strokeColor=#82b366;" vertex="1" parent="1">
          <mxGeometry x="650" y="350" width="120" height="60" as="geometry" />
        </mxCell>
        <mxCell id="SIxeFpGajm9Z2pZIayPS-12" value="Reported Change" style="rounded=1;whiteSpace=wrap;html=1;fillColor=#d5e8d4;strokeColor=#82b366;" vertex="1" parent="1">
          <mxGeometry x="630" y="540" width="120" height="60" as="geometry" />
        </mxCell>
        <mxCell id="SIxeFpGajm9Z2pZIayPS-14" value="Reported Issues" style="rounded=1;whiteSpace=wrap;html=1;fillColor=#d5e8d4;strokeColor=#82b366;" vertex="1" parent="1">
          <mxGeometry x="630" y="440" width="120" height="60" as="geometry" />
        </mxCell>
        <mxCell id="SIxeFpGajm9Z2pZIayPS-18" style="edgeStyle=orthogonalEdgeStyle;rounded=0;orthogonalLoop=1;jettySize=auto;html=1;exitX=1;exitY=0.5;exitDx=0;exitDy=0;endArrow=ERmany;endFill=0;" edge="1" parent="1" source="SIxeFpGajm9Z2pZIayPS-16" target="SIxeFpGajm9Z2pZIayPS-1">
          <mxGeometry relative="1" as="geometry">
            <Array as="points">
              <mxPoint x="170" y="210" />
              <mxPoint x="170" y="210" />
            </Array>
          </mxGeometry>
        </mxCell>
        <mxCell id="SIxeFpGajm9Z2pZIayPS-25" style="edgeStyle=orthogonalEdgeStyle;rounded=0;orthogonalLoop=1;jettySize=auto;html=1;exitX=0.5;exitY=0;exitDx=0;exitDy=0;entryX=0.5;entryY=1;entryDx=0;entryDy=0;endArrow=ERmany;endFill=0;" edge="1" parent="1" source="SIxeFpGajm9Z2pZIayPS-16" target="SIxeFpGajm9Z2pZIayPS-22">
          <mxGeometry relative="1" as="geometry" />
        </mxCell>
        <mxCell id="SIxeFpGajm9Z2pZIayPS-16" value="Ranking" style="rounded=1;whiteSpace=wrap;html=1;fillColor=#d5e8d4;strokeColor=#82b366;" vertex="1" parent="1">
          <mxGeometry x="20" y="180" width="120" height="60" as="geometry" />
        </mxCell>
        <mxCell id="SIxeFpGajm9Z2pZIayPS-19" style="edgeStyle=orthogonalEdgeStyle;rounded=0;orthogonalLoop=1;jettySize=auto;html=1;exitX=1;exitY=0.5;exitDx=0;exitDy=0;entryX=0;entryY=0.5;entryDx=0;entryDy=0;endArrow=ERmany;endFill=0;" edge="1" parent="1" source="SIxeFpGajm9Z2pZIayPS-17" target="SIxeFpGajm9Z2pZIayPS-1">
          <mxGeometry relative="1" as="geometry">
            <mxPoint x="180" y="230" as="targetPoint" />
          </mxGeometry>
        </mxCell>
        <mxCell id="SIxeFpGajm9Z2pZIayPS-17" value="Category" style="rounded=1;whiteSpace=wrap;html=1;fillColor=#d5e8d4;strokeColor=#82b366;" vertex="1" parent="1">
          <mxGeometry x="20" y="270" width="120" height="60" as="geometry" />
        </mxCell>
        <mxCell id="SIxeFpGajm9Z2pZIayPS-24" value="" style="edgeStyle=orthogonalEdgeStyle;rounded=0;orthogonalLoop=1;jettySize=auto;html=1;endArrow=none;endFill=0;" edge="1" parent="1" source="SIxeFpGajm9Z2pZIayPS-20" target="SIxeFpGajm9Z2pZIayPS-1">
          <mxGeometry relative="1" as="geometry" />
        </mxCell>
        <mxCell id="SIxeFpGajm9Z2pZIayPS-20" value="Penalty" style="rounded=1;whiteSpace=wrap;html=1;fillColor=#d5e8d4;strokeColor=#82b366;" vertex="1" parent="1">
          <mxGeometry x="200" y="40" width="120" height="60" as="geometry" />
        </mxCell>
        <mxCell id="SIxeFpGajm9Z2pZIayPS-22" value="Ranking History" style="rounded=1;whiteSpace=wrap;html=1;fillColor=#d5e8d4;strokeColor=#82b366;" vertex="1" parent="1">
          <mxGeometry x="20" y="40" width="120" height="60" as="geometry" />
        </mxCell>
      </root>
    </mxGraphModel>
  </diagram>
</mxfile>
